<?xml version="1.0" encoding="UTF-8" standalone="no"?>
<!DOCTYPE svg PUBLIC "-//W3C//DTD SVG 1.1//EN" "http://www.w3.org/Graphics/SVG/1.1/DTD/svg11.dtd">
<svg width="100%" height="100%" viewBox="0 0 1024 1024" version="1.1" xmlns="http://www.w3.org/2000/svg" xmlns:xlink="http://www.w3.org/1999/xlink" xml:space="preserve" xmlns:serif="http://www.serif.com/" style="fill-rule:evenodd;clip-rule:evenodd;stroke-linejoin:round;stroke-miterlimit:2;">
    <g transform="matrix(1.453992,0,0,1.453992,-232.539721,-232.589316)">
        <path d="M208.335,264.921C225.556,256.629 242.535,247.984 259.881,239.741C279.842,230.255 302.475,220.624 321.719,210.375C321.43,228.172 321.648,246.086 321.515,263.913C311.42,263.883 249.571,262.401 243.908,264.361C243.18,265.583 242.459,266.273 242.495,267.448C243.062,267.531 244.404,267.724 244.922,267.719C258.225,267.606 271.706,267.5 284.991,267.491L377.614,267.545L703.883,267.554C712.96,267.561 781.216,268.279 782.666,267.033C782.043,265.668 780.814,264.055 779.164,264.018C753.669,263.455 728.011,264.21 702.529,263.772C702.178,246.153 702.694,228.578 702.056,210.91C705.366,211.947 711.71,215.035 715.192,216.627C723.932,220.605 732.629,224.676 741.283,228.838L783.608,248.76C794.276,253.845 804.848,259.22 815.607,264.09C816.354,277.505 814.687,297.359 814.216,311.172L812.111,388.902L808.527,511.096C807.927,529.138 807.606,548.238 806.418,566.165C806.707,577.775 805.563,591.438 805.598,603.363C805.613,608.534 805.773,626.83 805.054,630.594C805.515,638.102 804.397,650.219 804.306,658.106C804.08,677.769 802.668,697.894 802.207,717.479C801.649,755.798 800.481,794.105 798.704,832.386C798.288,840.813 798.53,856.661 797.67,864.08L705.33,863.972C687.639,863.98 669.008,863.689 651.444,864.234C654.808,860.137 666.119,849.72 670.619,845.279L707.668,808.338L760.862,755.444C773.898,742.272 786.139,729.331 799.429,716.309C800.214,708.046 800.224,695.868 799.817,687.555C787.848,698.489 777.525,710.604 766.065,721.887L666.88,820.312C655.64,831.499 644.189,842.406 633.246,853.891C630.021,857.275 626.501,860.842 622.927,863.834C612.534,863.804 602.14,863.909 591.749,864.15C608.266,847.249 626.27,830.131 643.072,813.331L722.533,733.528L765.656,691.31C771.942,685.064 779.592,677.787 785.395,671.239C781.898,667.274 774.87,660.048 770.948,656.771C766.854,660.292 763.094,665.383 758.944,669.215C739.019,687.614 720.187,707.118 701.09,726.36L630.502,796.35C608.189,819.034 585.728,841.572 563.119,863.961C551.417,863.794 539.714,863.79 528.012,863.947C534.315,856.645 544.155,848.172 551.094,841.1C561.925,830.064 572.905,819.047 583.899,808.174L699.193,693.578C715.81,677.012 738.375,656.241 753.781,639.237C749.427,634.094 740.88,625.883 735.888,620.815C724.021,608.727 712.074,596.718 700.049,584.787L618.2,501.863C613.821,505.566 609.761,509.414 605.319,513.064C601.239,516.418 596.834,519.259 592.885,522.616C599.752,529.87 632.688,558.859 633.9,565.062C634.63,568.799 635.183,573.129 632.845,576.396C626.975,584.596 612.466,596.829 604.618,604.586C598.5,610.632 592.749,617.053 586.697,623.169C576.187,633.694 565.581,644.123 554.879,654.453L477.469,731.538C471.077,737.799 456.602,754.618 448.27,757.534C441.633,759.857 433.825,750.496 429.1,745.753C412.897,729.489 397.015,712.633 380.736,696.282L336.191,651.583C332.104,647.456 321.866,638.027 318.708,634.111C316.683,631.636 315.496,628.583 315.318,625.391C315.133,622.235 315.855,620.219 317.956,617.841C325.278,609.554 334.079,601.256 341.896,593.413L392.733,542.61C400.075,535.218 411.033,524.774 417.602,517.126L418.013,516.641C411.692,510.232 402.91,501.108 396.61,495.354C390.832,500.268 379.073,513.09 373.166,519.168C361.257,531.343 349.257,543.427 337.164,555.42L294.637,598.079C285.839,606.849 275.026,617.098 267.061,626.317C272.348,632.849 287.358,647.016 293.867,653.347C306.05,665.306 318.157,677.343 330.185,689.458L456.563,816.935C469.887,830.418 483.851,843.216 496.924,856.94C499.151,859.278 501.122,861.202 502.876,863.939L226.537,864.037C226.127,842.802 225.114,821.961 224.613,800.932L213.945,435.534C212.282,393.057 210.937,350.568 209.911,308.07C209.497,293.507 208.44,279.586 208.335,264.921ZM351.611,625.493C377.082,649.378 399.941,674.572 424.714,699.047C432.088,706.332 438.737,714.252 446.482,721.168C458.911,709.686 469.722,698.233 481.689,686.597L563.514,604.264C573.912,593.657 588.923,579.894 598.033,568.979C590.83,560.644 573.581,544.211 565.315,536.754C527.539,551.269 488.97,551.643 451.701,535.045C449.529,534.09 447.385,533.07 445.273,531.988C439.894,536.013 424.03,552.747 418.391,558.499C396.559,580.765 373.105,603.066 351.611,625.493ZM376.439,383.676C376.886,390.666 377.222,398.183 378.095,405.11C385.246,461.85 426.576,511.133 483.471,522.726C518.456,529.493 554.699,522.224 584.37,502.49C615.298,482.043 637.533,451.435 644.839,414.769C646.113,408.449 646.877,402.037 647.124,395.594C647.395,388.883 647.103,381.581 647.078,374.795L646.948,338.467C646.861,329.56 646.957,320.565 647.037,311.649C646.935,310.027 646.617,307.85 645.572,306.555C641.161,301.087 633.593,306.902 633.471,312.523C633.322,319.448 633.537,326.415 633.576,333.342L633.661,374.877C633.669,384.539 634.008,395.257 632.925,404.754C629.695,435.095 614.48,462.888 590.66,481.957L534.871,425.807C524.797,415.671 510.075,400.321 499.697,391.554C495.657,395.506 491.949,399.862 487.889,403.771C470.401,420.608 453.43,437.923 436.348,455.166C431.22,460.342 426.013,466.295 420.268,470.706C415.887,466.202 410.203,457.153 407.144,451.742C391.513,424.878 389.046,395.952 390.178,365.611C390.727,350.894 389.595,335.286 390.201,320.482C390.32,317.574 390.454,310.734 389.009,308.221C385.353,301.867 378.576,304.957 376.515,311.307C376.168,311.8 375.82,312.293 375.473,312.786C374.971,335.822 375.287,359.175 375.621,382.213C375.63,382.848 376.754,384.106 376.439,383.676ZM369.376,317.704C370.776,308.111 372.84,296.959 385.773,298.764L386.47,299.055C398.538,304.198 391.713,309.831 397.756,315.795L398.678,315.921C400.101,314.365 400.151,311.028 399.981,309.03C399,297.497 389.538,294.055 379.836,294.594C368.262,297.642 362.162,306.969 369.376,317.704ZM637.382,294.063C626.795,296.654 623.71,303.273 623.978,313.45C624.987,315.05 625.85,316.421 626.967,317.945C628.331,307.251 629.863,296.977 643.742,298.647C655.914,304.281 652.232,313.934 655.006,316.084C656.318,314.409 657.262,311.316 657.858,309.248C654.968,298.446 649.198,293.109 637.382,294.063Z" style="fill:white;fill-rule:nonzero;stroke:white;stroke-width:0.69px;"/>
    </g>
    <g transform="matrix(1.453992,0,0,1.453992,-232.539721,-232.589316)">
        <path d="M499.757,437.009C503.239,438.361 558.019,493.306 564.238,499.974C556.08,505.055 543.929,509.35 534.456,510.892C527.182,507.862 514.283,493.107 507.941,486.83C505.191,484.196 503.058,482.092 500.023,479.809C491.154,487.642 481.964,498.31 472.957,505.836C463.972,503.61 452.691,497.133 444.957,492.194C448.549,487.498 456.598,480.298 460.862,475.687C469.383,466.475 478.458,457.475 487.477,448.759C491.169,445.192 495.819,440.065 499.757,437.009Z" style="fill:white;fill-rule:nonzero;stroke:white;stroke-width:0.69px;"/>
    </g>
    <g transform="matrix(1.453992,0,0,1.453992,-232.539721,-232.589316)">
        <path d="M376.439,383.676C376.754,384.106 375.63,382.848 375.621,382.213C375.287,359.175 374.971,335.822 375.473,312.786C375.82,312.293 376.168,311.8 376.515,311.307C375.339,333.915 376.816,360.381 376.439,383.676Z" style="fill-rule:nonzero;stroke:white;stroke-width:0.69px;"/>
    </g>
    <g transform="matrix(1.453992,0,0,1.453992,-232.539721,-232.589316)">
        <path d="M248.832,160.23C283.439,159.606 320.297,160.285 355.12,160.278L574.448,160.282L705.831,160.331L747.641,160.36C756.582,160.372 766.623,160.194 775.451,160.749L707.734,198.479C702.73,201.188 697.14,204.385 692.01,206.71C691.364,224.937 691.922,245.537 692.078,263.948C679.167,263.354 662.608,263.692 649.458,263.637L557.974,263.692L331.897,263.631C332.062,245.434 332.095,227.236 331.995,209.039C325.135,205.294 248.19,161.704 247.377,160.654L248.832,160.23Z" style="fill:white;fill-rule:nonzero;stroke:white;stroke-width:0.69px;"/>
    </g>
    <g transform="matrix(1.038691,-1.017455,1.017455,1.038691,-798.952656,628.011993)">
        <path d="M516.518,731.964C523.266,731.436 536.515,731.923 543.693,731.943C545.342,734.137 544.528,746.24 544.458,749.564C544.54,752.748 544.601,755.932 544.64,759.117C553.632,759.123 563.091,758.988 572.032,759.447C571.98,766.956 572.35,780.625 571.782,787.471C567.66,787.508 546.574,787.125 544.315,787.97C543.053,789.634 542.951,812.292 543.721,814.502L516.514,814.553C516.015,806.121 516.432,796.267 516.337,787.592C507.258,787.39 497.686,787.67 488.52,787.597C488.349,778.249 488.452,768.592 488.432,759.219C497.872,758.813 507.463,759.677 516.506,759.233C516.403,750.143 516.407,741.053 516.518,731.964Z" style="fill:white;fill-rule:nonzero;stroke:white;stroke-width:0.69px;"/>
        <path d="M544.315,787.97C544.494,791.703 545.215,812.659 543.721,814.502C542.951,812.292 543.053,789.634 544.315,787.97Z" style="fill:white;fill-rule:nonzero;stroke:white;stroke-width:0.69px;"/>
    </g>
    <g transform="matrix(1.453992,0,0,1.453992,-232.539721,-232.589316)">
        <path d="M630.785,663.817C644.274,663.062 655.838,673.349 656.659,686.834C657.48,700.319 647.249,711.933 633.768,712.82C620.194,713.712 608.483,703.396 607.656,689.818C606.829,676.239 617.202,664.578 630.785,663.817Z" style="fill:white;fill-rule:nonzero;stroke:white;stroke-width:0.69px;"/>
    </g>
    <g transform="matrix(1.453992,0,0,1.453992,-232.539721,-232.589316)">
        <path d="M648.974,602.817C662.137,600.578 674.632,609.408 676.916,622.563C679.199,635.719 670.412,648.243 657.264,650.571C644.053,652.91 631.456,644.072 629.161,630.853C626.867,617.635 635.748,605.068 648.974,602.817Z" style="fill:white;fill-rule:nonzero;stroke:white;stroke-width:0.69px;"/>
    </g>
</svg>
